<?xml version="1.0" standalone="no"?>
<!DOCTYPE svg PUBLIC "-//W3C//DTD SVG 20010904//EN"
 "http://www.w3.org/TR/2001/REC-SVG-20010904/DTD/svg10.dtd">
<svg version="1.0" xmlns="http://www.w3.org/2000/svg"
 width="288.000000pt" height="288.000000pt" viewBox="0 0 288.000000 288.000000"
 preserveAspectRatio="xMidYMid meet">
<metadata>
Created by potrace 1.14, written by Peter Selinger 2001-2017
</metadata>
<g transform="translate(0.000000,288.000000) scale(0.100000,-0.100000)"
fill="#000000" stroke="none">
<path d="M1353 2846 c-15 -5 -32 -12 -38 -16 -5 -5 -28 -12 -50 -16 -47 -8
-92 -26 -94 -36 0 -5 -1 -12 -1 -16 0 -4 -14 -16 -31 -26 -22 -13 -29 -14 -24
-5 5 9 1 8 -11 -3 -22 -19 -17 -18 -86 -18 -48 0 -50 -1 -32 -15 17 -13 16
-14 -16 -5 -45 13 -47 13 -26 -3 17 -13 16 -15 -15 -30 -46 -22 -96 -57 -83
-57 6 0 14 3 18 8 4 4 11 7 14 8 7 1 32 10 71 25 35 14 37 3 2 -12 -16 -7 -27
-17 -25 -21 3 -4 2 -8 -3 -9 -46 -4 -88 -11 -93 -16 -3 -3 10 -4 28 -1 47 7
39 -3 -29 -35 -32 -16 -59 -32 -59 -37 0 -5 6 -8 13 -6 6 1 9 1 5 -1 -5 -3 -8
-11 -8 -19 0 -8 -4 -14 -9 -14 -14 0 -63 -81 -57 -95 2 -7 -7 -21 -20 -30 -14
-9 -23 -22 -21 -30 3 -7 -1 -22 -10 -34 -8 -12 -12 -28 -9 -36 3 -8 1 -17 -4
-20 -4 -3 -7 -30 -6 -61 2 -43 -2 -62 -18 -82 -16 -21 -17 -24 -3 -13 17 13
18 12 13 -30 -3 -25 -13 -50 -23 -57 -16 -13 -16 -13 7 -7 22 7 23 6 11 -9
-11 -13 -11 -16 0 -16 9 -1 4 -9 -11 -22 l-25 -21 27 7 c30 7 36 -2 15 -23 -9
-11 -9 -13 1 -7 20 12 14 -12 -10 -36 l-21 -21 21 5 c12 4 22 2 22 -4 0 -5 -9
-12 -20 -15 -25 -7 -25 -16 -2 -34 15 -12 16 -12 4 2 -10 14 -9 17 7 22 14 3
19 -1 19 -18 0 -20 -5 -23 -28 -20 -26 4 -31 -5 -20 -35 1 -3 2 -9 1 -13 -1
-5 3 -6 9 -2 5 3 10 -3 10 -14 0 -13 -7 -21 -17 -22 -11 0 -13 -3 -5 -6 6 -2
12 -11 12 -19 0 -8 6 -14 13 -14 8 0 7 -3 -3 -10 -29 -18 -17 -193 20 -277 43
-98 131 -199 153 -177 9 10 25 -29 31 -76 12 -101 38 -169 83 -220 16 -17 23
-37 23 -66 0 -38 -6 -46 -87 -125 -49 -46 -104 -98 -123 -114 -19 -17 -53 -50
-75 -75 -30 -35 -60 -54 -132 -85 -52 -22 -92 -44 -91 -50 2 -10 88 -96 88
-89 0 3 110 -68 145 -94 15 -10 56 -30 88 -42 17 -6 25 -14 21 -22 -4 -7 -3
-8 5 -4 13 8 53 -2 47 -12 -2 -4 10 -8 27 -9 17 -1 34 -8 39 -15 4 -7 8 -10 8
-5 0 4 13 1 30 -8 16 -8 32 -15 35 -15 43 1 55 -1 49 -12 -4 -7 -3 -8 5 -4 6
4 19 2 28 -6 10 -8 14 -8 10 -1 -6 9 1 9 25 1 18 -5 40 -10 48 -10 8 -1 20 -4
25 -9 6 -4 130 -6 275 -4 289 4 311 5 304 17 -3 4 11 6 30 4 19 -1 33 1 31 5
-3 4 8 9 23 12 15 3 37 7 49 10 15 4 26 0 33 -11 9 -14 10 -13 5 6 -4 13 -2
22 4 22 18 0 26 -5 23 -13 -1 -5 2 -6 8 -2 6 3 8 10 5 15 -3 4 2 11 11 14 10
4 13 2 8 -7 -5 -7 -1 -6 10 2 19 16 124 62 144 64 6 0 12 4 12 9 0 4 5 8 11 8
6 0 22 9 36 20 20 16 29 17 40 9 11 -10 12 -8 7 5 -5 12 0 19 15 23 11 3 21 9
21 14 0 5 3 8 8 7 4 -2 17 7 30 20 13 13 29 21 37 19 7 -3 12 0 11 7 0 7 19
29 42 49 38 32 41 38 25 43 -20 8 -72 30 -144 63 -42 18 -65 43 -61 64 1 4 -1
6 -5 5 -5 -1 -33 20 -62 48 -139 125 -180 164 -175 164 3 0 -9 12 -28 27 -42
35 -47 42 -43 62 2 9 4 26 4 38 1 16 6 21 16 17 11 -5 13 -2 9 10 -3 9 -1 16
5 16 8 0 33 42 46 80 1 3 8 19 15 35 7 17 12 34 11 39 -1 4 3 14 9 21 6 7 7
16 3 18 -5 3 -7 24 -5 46 3 29 9 41 21 43 9 0 21 2 26 3 6 2 16 3 23 4 6 0 11
7 10 14 -2 6 3 11 10 9 8 -1 11 2 8 7 -3 5 3 19 13 32 10 13 19 28 19 34 0 5
6 11 13 14 7 2 9 -1 4 -9 -5 -9 -4 -11 4 -6 9 6 9 11 1 21 -7 9 -6 16 3 24 8
6 17 8 20 5 4 -4 5 3 2 15 -2 11 1 21 6 21 6 0 8 4 5 9 -4 5 0 12 6 14 10 4
10 6 0 6 -10 1 -10 6 0 29 8 15 13 36 13 47 0 11 3 23 8 26 6 4 5 14 -1 24 -5
10 -7 36 -5 57 4 24 1 44 -8 55 -8 9 -9 14 -3 10 14 -8 26 17 14 29 -4 5 -11
19 -15 31 -5 19 -3 22 12 16 17 -6 16 -4 -2 18 -11 13 -13 18 -5 12 19 -18 28
-16 40 7 9 16 6 22 -21 36 -23 12 -28 18 -19 24 8 5 15 16 16 24 1 9 -1 14 -6
11 -5 -3 -16 2 -24 11 -18 17 -13 73 7 86 8 5 8 8 1 8 -13 0 -12 45 0 57 5 4
6 2 2 -4 -4 -7 -2 -13 4 -13 6 0 9 -4 5 -9 -3 -5 0 -13 6 -17 8 -4 9 3 4 26
-5 21 -4 30 3 26 6 -4 8 2 5 14 -3 11 -10 20 -15 20 -6 0 -4 8 3 17 10 11 10
14 2 9 -8 -4 -13 -1 -13 9 0 9 4 14 9 10 5 -3 12 -1 16 5 3 5 0 10 -8 10 -8 0
-17 9 -20 20 -3 13 0 20 9 20 8 0 14 -7 14 -17 0 -9 3 -13 6 -10 9 9 -25 97
-37 97 -5 0 -9 9 -9 21 0 11 -4 18 -9 15 -5 -3 -13 0 -18 7 -14 17 -23 57 -12
57 11 0 30 -36 22 -44 -3 -3 -1 -6 6 -6 14 0 6 35 -13 60 -17 21 -40 73 -38
85 1 6 -18 23 -43 38 -25 16 -45 31 -45 34 0 2 5 1 10 -2 6 -3 10 -1 10 4 0 6
-4 11 -8 11 -5 0 -9 7 -9 16 0 11 9 6 29 -16 15 -18 28 -37 28 -43 0 -6 3 -7
7 -4 3 4 13 1 21 -6 13 -10 14 -9 3 11 -7 12 -16 20 -21 17 -6 -3 -8 0 -5 7 3
7 -16 28 -45 48 -27 19 -49 42 -50 50 0 12 -2 12 -9 2 -7 -11 -11 -10 -24 2
-9 9 -21 15 -28 14 -7 -2 -23 16 -35 40 -13 23 -19 42 -14 42 6 0 10 -5 10
-11 0 -5 5 -7 10 -4 6 3 11 -1 11 -9 3 -29 4 -34 11 -42 4 -3 6 3 3 14 -3 15
0 19 11 15 9 -3 2 14 -17 42 -32 47 -107 94 -129 80 -6 -3 -10 -2 -10 4 0 6
-15 18 -32 26 -29 14 -31 14 -14 0 11 -8 24 -15 29 -15 4 0 5 -5 2 -11 -4 -6
-9 -8 -12 -5 -3 3 -20 -1 -37 -8 -27 -11 -35 -11 -51 0 -10 8 -27 14 -37 14
-10 0 -38 15 -62 34 -65 49 -159 66 -233 42z m192 -29 c44 -24 60 -39 74 -67
10 -21 10 -22 -1 -9 -19 23 -57 41 -73 35 -8 -3 -17 0 -21 6 -4 7 -3 8 4 4 7
-4 12 -5 12 -2 0 6 -75 46 -85 46 -3 0 0 -6 7 -14 7 -8 15 -12 18 -11 3 2 12
-1 20 -6 17 -11 -31 -5 -90 11 -19 6 -48 10 -65 11 l-30 1 30 7 c55 12 169 5
200 -12z m-165 -14 c0 -5 -17 -8 -37 -7 -21 0 -55 -5 -77 -12 -21 -8 -42 -11
-47 -8 -5 3 -9 0 -9 -5 0 -6 -5 -11 -12 -11 -6 0 -3 8 7 20 10 11 22 17 26 14
5 -3 16 -1 25 4 20 11 124 15 124 5z m201 -50 c13 -15 12 -15 -8 -4 -24 12
-29 21 -14 21 5 0 15 -7 22 -17z m101 -4 c17 -9 18 -13 7 -20 -20 -12 -29 -11
-26 3 1 7 -3 12 -10 13 -6 0 -15 3 -19 8 -11 11 25 8 48 -4z m195 -12 c3 -4
-23 -5 -58 -2 -46 3 -55 2 -34 -4 26 -8 23 -9 -22 -8 -43 1 -48 3 -34 13 9 7
28 14 41 16 28 4 97 -6 107 -15z m34 -24 c13 -16 12 -17 -3 -4 -17 13 -22 21
-14 21 2 0 10 -8 17 -17z m-46 -41 c12 -9 24 -26 28 -36 6 -15 2 -13 -19 7
-14 15 -30 25 -34 22 -3 -2 -7 2 -7 10 0 19 7 18 32 -3z m346 -494 c8 -14 6
-18 -7 -18 -10 0 -14 3 -11 7 4 3 0 18 -10 32 -16 25 -16 25 1 12 9 -8 22 -23
27 -33z m4 -348 c3 -5 -1 -10 -9 -10 -9 0 -16 5 -16 10 0 6 4 10 9 10 6 0 13
-4 16 -10z m9 -51 c24 -11 27 -29 5 -29 -6 0 -7 5 -4 10 3 6 -3 10 -14 10 -12
0 -21 5 -21 10 0 13 3 13 34 -1z m-1589 -39 c3 -6 -1 -7 -9 -4 -18 7 -21 14
-7 14 6 0 13 -4 16 -10z m10 -80 c3 -5 1 -10 -4 -10 -6 0 -11 5 -11 10 0 6 2
10 4 10 3 0 8 -4 11 -10z"/>
<path d="M920 2670 c-9 -6 -10 -10 -3 -10 6 0 15 5 18 10 8 12 4 12 -15 0z"/>
<path d="M740 2485 c-9 -10 -9 -15 -1 -15 6 0 11 5 11 11 0 5 5 7 12 3 7 -4 8
-3 4 4 -9 15 -11 15 -26 -3z"/>
<path d="M2130 2406 c0 -2 7 -9 15 -16 13 -11 14 -10 9 4 -5 14 -24 23 -24 12z"/>
<path d="M626 2260 c-22 -56 -19 -65 5 -11 11 24 18 46 15 48 -2 2 -11 -14
-20 -37z"/>
<path d="M1975 941 c-3 -5 -2 -12 3 -15 5 -3 9 1 9 9 0 17 -3 19 -12 6z"/>
<path d="M2380 300 c-9 -6 -10 -10 -3 -10 6 0 15 5 18 10 8 12 4 12 -15 0z"/>
<path d="M2310 250 c0 -5 5 -10 11 -10 5 0 7 5 4 10 -3 6 -8 10 -11 10 -2 0
-4 -4 -4 -10z"/>
</g>
</svg>
